<?xml version="1.0" encoding="UTF-8" standalone="no"?>
<!-- Created with Inkscape (http://www.inkscape.org/) -->

<svg
   width="512"
   height="512"
   viewBox="0 0 135.46666 135.46666"
   version="1.1"
   id="svg5"
   sodipodi:docname="icon.svg"
   inkscape:version="1.1 (c68e22c387, 2021-05-23)"
   xmlns:inkscape="http://www.inkscape.org/namespaces/inkscape"
   xmlns:sodipodi="http://sodipodi.sourceforge.net/DTD/sodipodi-0.dtd"
   xmlns="http://www.w3.org/2000/svg"
   xmlns:svg="http://www.w3.org/2000/svg">
  <sodipodi:namedview
     id="namedview16"
     pagecolor="#505050"
     bordercolor="#eeeeee"
     borderopacity="1"
     inkscape:pageshadow="0"
     inkscape:pageopacity="0"
     inkscape:pagecheckerboard="0"
     showgrid="false"
     inkscape:zoom="1.4707031"
     inkscape:cx="256"
     inkscape:cy="256"
     inkscape:window-width="1920"
     inkscape:window-height="1137"
     inkscape:window-x="-8"
     inkscape:window-y="-8"
     inkscape:window-maximized="1"
     inkscape:current-layer="layer1" />
  <defs
     id="defs2">
    <clipPath
       id="66303242-296a-4558-b35c-45dffbe95827">
      <rect
         width="24"
         height="24"
         id="rect918" />
    </clipPath>
  </defs>
  <g
     id="layer1">
    <rect
       style="fill:#6e85d3;fill-opacity:1;stroke-width:1.0045"
       id="rect18135"
       width="135.46666"
       height="135.46666"
       x="3.5603841e-06"
       y="3.5603841e-06" />
    <g
       style="color:#ffffff;fill:#ffffff"
       id="g868"
       transform="matrix(4.6302124,0,0,4.6307175,12.170832,12.169814)">
      <path
         fill="currentColor"
         fill-rule="evenodd"
         clip-rule="evenodd"
         d="m 18.6683,11.9964 c 0.9309,1.2244 1.7049,2.4367 2.2739,3.5737 1.6436,3.2892 1.0696,4.8987 0.2996,5.6697 -0.3468,0.3448 -0.9822,0.758 -2.0467,0.758 -1.8306,0 -4.4473,-1.2425 -7.1947,-3.3295 -2.74842,2.087 -5.36513,3.3295 -7.19471,3.3295 -1.06458,0 -1.70091,-0.4132 -2.04673,-0.758 C 1.98792,20.4677 1.41392,18.8593 3.05853,15.5701 3.62751,14.4331 4.40257,13.2218 5.33245,11.9964 2.51569,8.28291 1.00176,4.51719 2.75896,2.75898 3.10578,2.41316 3.74111,2 4.80569,2 6.63628,2 9.25298,3.24251 12.0004,5.32944 14.7488,3.24251 17.3655,2 19.1951,2 c 1.0645,0 1.6999,0.41216 2.0467,0.75898 1.7572,1.7572 0.2433,5.52293 -2.5735,9.23742 z m 1.152,-7.81598 C 19.6806,4.03969 19.4032,4.01053 19.1951,4.01053 c -1.147,0 -3.2018,0.90977 -5.5742,2.63782 1.4053,1.21637 2.6137,2.43677 3.7446,3.74665 2.3865,-3.26312 2.9886,-5.68078 2.4548,-6.21458 z M 14.1325,14.1316 C 14.8654,13.3987 15.5108,12.689 16.0928,12.0024 15.4876,11.2856 14.8342,10.5689 14.1325,9.86621 13.4128,9.14744 12.701,8.51312 12.0004,7.92202 11.2997,8.51312 10.588,9.14744 9.86821,9.86621 9.16653,10.5689 8.51311,11.2856 7.90794,12.0024 c 0.58205,0.6866 1.22843,1.3963 1.96027,2.1292 0.71979,0.7197 1.43149,1.354 2.13219,1.9431 0.7006,-0.5891 1.4124,-1.2234 2.1321,-1.9431 z M 4.80569,4.01053 C 4.5986,4.01053 4.32115,4.03969 4.18142,4.18042 3.64661,4.71422 4.24977,7.13088 6.63628,10.394 7.83556,9.00469 9.05696,7.79435 10.3799,6.64735 8.00645,4.9203 5.95269,4.01053 4.80569,4.01053 Z M 4.18041,19.8183 c 0.13973,0.1398 0.41719,0.1689 0.62528,0.1689 1.147,0 3.20177,-0.9087 5.57421,-2.6358 C 8.98357,16.1421 7.7873,14.9348 6.6413,13.6078 5.92053,14.593 5.31133,15.56 4.85695,16.4688 3.79539,18.5909 3.9502,19.5881 4.18041,19.8183 Z m 15.01369,0.1689 c 0.208,0 0.4855,-0.0291 0.6252,-0.1689 0.2302,-0.2302 0.3851,-1.2264 -0.6765,-3.3495 -0.4544,-0.9098 -1.0636,-1.8768 -1.7844,-2.861 -1.147,1.328 -2.3432,2.5353 -3.7385,3.7436 2.3734,1.7271 4.4272,2.6358 5.5742,2.6358 z"
         id="path859"
         style="fill:#272942;fill-opacity:1" />
    </g>
    <g
       style="color:#ffffff;fill:#ffffff"
       id="g934"
       transform="matrix(0.89282984,0,0,0.89282983,57.320877,56.718074)">
      <g
         clip-path="url(#66303242-296a-4558-b35c-45dffbe95827)"
         id="g916"
         style="fill:#ffffff">
        <path
           fill-rule="evenodd"
           clip-rule="evenodd"
           d="m 4.92871,13.4149 5.65699,5.656 7.7782,-7.7782 C 19.7781,9.87859 22.6066,6.48376 21.1923,2.80748 17.5153,1.3932 14.1213,4.22173 12.7074,5.63625 Z M 16.064,9.93309 c 1.1046,0 2,-0.89543 2,-2 0,-1.10457 -0.8954,-2 -2,-2 -1.1046,0 -2,0.89543 -2,2 0,1.10457 0.8954,2 2,2 z"
           fill="currentColor"
           id="path908"
           style="fill:#1e1e31;fill-opacity:1" />
        <path
           d="M 3.41357,16.7844 C 2.34946,17.8496 2.00004,22 2.00004,22 c 0,0 4.15121,-0.3479 5.21623,-1.4131 C 7.71243,20.0915 7.96638,19.4494 8,18.8004 L 5.21285,18.7866 5.19829,16 c -0.64882,0.0336 -1.28856,0.2881 -1.78472,0.7844 z"
           fill="currentColor"
           id="path910"
           style="fill:#f9a075;fill-opacity:1" />
        <path
           d="M 9.17144,9.17151 H 3.51459 l -1.76775,1.76779 4.59618,1.0606 z"
           fill="currentColor"
           id="path912"
           style="fill:#1e1e31;fill-opacity:1" />
        <path
           d="m 14.8283,14.8283 v 5.6569 l -1.7677,1.7677 -1.0607,-4.5961 z"
           fill="currentColor"
           id="path914"
           style="fill:#1e1e31;fill-opacity:1" />
      </g>
    </g>
  </g>
</svg>
